<svg width="40" height="48" viewBox="0 0 40 48" fill="none" xmlns="http://www.w3.org/2000/svg">
<path d="M0 32.0257V12.4188L20 0L40 12.4188V32.0257L20 44.4444L0 32.0257Z" fill="#F35816"/>
<path d="M24.354 28.4473H13.454V25.3073C15.1206 24.1339 16.3406 23.2673 17.114 22.7073C17.8873 22.1473 18.534 21.6406 19.054 21.1873C19.574 20.7339 19.8806 20.4073 19.974 20.2073C20.0806 20.0073 20.134 19.7739 20.134 19.5073C20.134 19.2006 19.9873 18.9539 19.694 18.7673C19.4006 18.5673 19.034 18.4673 18.594 18.4673C17.3406 18.4673 16.1673 18.9273 15.074 19.8473L12.874 17.1673C13.594 16.3939 14.454 15.8273 15.454 15.4673C16.4673 15.0939 17.4873 14.9073 18.514 14.9073C20.234 14.9073 21.614 15.3406 22.654 16.2073C23.7073 17.0606 24.234 18.1606 24.234 19.5073C24.234 20.4406 23.9206 21.3206 23.294 22.1473C22.6673 22.9739 21.574 23.9006 20.014 24.9273H24.354V28.4473Z" fill="#fff"/>
<path d="M24.354 28.4473H13.454V25.3073C15.1206 24.1339 16.3406 23.2673 17.114 22.7073C17.8873 22.1473 18.534 21.6406 19.054 21.1873C19.574 20.7339 19.8806 20.4073 19.974 20.2073C20.0806 20.0073 20.134 19.7739 20.134 19.5073C20.134 19.2006 19.9873 18.9539 19.694 18.7673C19.4006 18.5673 19.034 18.4673 18.594 18.4673C17.3406 18.4673 16.1673 18.9273 15.074 19.8473L12.874 17.1673C13.594 16.3939 14.454 15.8273 15.454 15.4673C16.4673 15.0939 17.4873 14.9073 18.514 14.9073C20.234 14.9073 21.614 15.3406 22.654 16.2073C23.7073 17.0606 24.234 18.1606 24.234 19.5073C24.234 20.4406 23.9206 21.3206 23.294 22.1473C22.6673 22.9739 21.574 23.9006 20.014 24.9273H24.354V28.4473Z" fill="#fff"/>
<path d="M24.354 28.4473H13.454V25.3073C15.1206 24.1339 16.3406 23.2673 17.114 22.7073C17.8873 22.1473 18.534 21.6406 19.054 21.1873C19.574 20.7339 19.8806 20.4073 19.974 20.2073C20.0806 20.0073 20.134 19.7739 20.134 19.5073C20.134 19.2006 19.9873 18.9539 19.694 18.7673C19.4006 18.5673 19.034 18.4673 18.594 18.4673C17.3406 18.4673 16.1673 18.9273 15.074 19.8473L12.874 17.1673C13.594 16.3939 14.454 15.8273 15.454 15.4673C16.4673 15.0939 17.4873 14.9073 18.514 14.9073C20.234 14.9073 21.614 15.3406 22.654 16.2073C23.7073 17.0606 24.234 18.1606 24.234 19.5073C24.234 20.4406 23.9206 21.3206 23.294 22.1473C22.6673 22.9739 21.574 23.9006 20.014 24.9273H24.354V28.4473Z" fill="white"/>
</svg>
